<svg xmlns="http://www.w3.org/2000/svg" xmlns:xlink="http://www.w3.org/1999/xlink" width="500" zoomAndPan="magnify" viewBox="0 0 375 374.999991" height="500" preserveAspectRatio="xMidYMid meet" version="1.0"><defs><g/><clipPath id="67516d3007"><rect x="0" width="210" y="0" height="311"/></clipPath><clipPath id="662bbb50e5"><rect x="0" width="175" y="0" height="25"/></clipPath><clipPath id="f14b52d68e"><rect x="0" width="277" y="0" height="320"/></clipPath></defs><rect x="-37.5" width="450" fill="#ffffff" y="-37.499999" height="449.999989" fill-opacity="1"/><rect x="-37.5" width="450" fill="#340839" y="-37.499999" height="449.999989" fill-opacity="1"/><g transform="matrix(1, 0, 0, 1, 24, 28)"><g clip-path="url(#67516d3007)"><g fill="#ef3e78" fill-opacity="1"><g transform="translate(78.644182, 217.648038)"><g><path d="M 40.125 -19.140625 C 40.125 -15.222656 40.84375 -11.363281 42.28125 -7.5625 C 43.726562 -3.757812 46.613281 -1.238281 50.9375 0 L 10.5 0 C 15.019531 -1.238281 17.945312 -3.8125 19.28125 -7.71875 C 20.625 -11.625 21.296875 -15.632812 21.296875 -19.75 L 21.296875 -132.421875 C 21.296875 -136.328125 20.578125 -140.179688 19.140625 -143.984375 C 17.703125 -147.796875 14.820312 -150.21875 10.5 -151.25 L 50.9375 -151.25 C 46.613281 -150.007812 43.726562 -147.535156 42.28125 -143.828125 C 40.84375 -140.128906 40.125 -136.328125 40.125 -132.421875 L 40.125 -61.734375 C 62.351562 -61.734375 78.300781 -67.390625 87.96875 -78.703125 C 97.644531 -90.023438 102.484375 -106.390625 102.484375 -127.796875 C 102.484375 -138.492188 100.628906 -148.472656 96.921875 -157.734375 C 93.210938 -166.992188 88.015625 -175.019531 81.328125 -181.8125 C 74.640625 -188.601562 66.769531 -193.898438 57.71875 -197.703125 C 48.664062 -201.515625 38.6875 -203.421875 27.78125 -203.421875 C 13.988281 -203.421875 1.488281 -200.898438 -9.71875 -195.859375 C -20.9375 -190.816406 -30.453125 -183.921875 -38.265625 -175.171875 C -46.085938 -166.421875 -52.160156 -156.179688 -56.484375 -144.453125 C -60.804688 -132.722656 -62.96875 -120.171875 -62.96875 -106.796875 C -62.96875 -96.097656 -61.421875 -85.707031 -58.328125 -75.625 C -55.242188 -65.539062 -50.664062 -56.640625 -44.59375 -48.921875 C -38.53125 -41.203125 -31.070312 -35.023438 -22.21875 -30.390625 C -13.375 -25.765625 -3.085938 -23.453125 8.640625 -23.453125 L 8.640625 -20.6875 C -4.117188 -20.6875 -15.640625 -23.207031 -25.921875 -28.25 C -36.210938 -33.289062 -44.957031 -40.023438 -52.15625 -48.453125 C -59.363281 -56.890625 -64.921875 -66.613281 -68.828125 -77.625 C -72.742188 -88.632812 -74.703125 -100.210938 -74.703125 -112.359375 C -74.703125 -126.765625 -71.921875 -139.726562 -66.359375 -151.25 C -60.804688 -162.769531 -53.347656 -172.59375 -43.984375 -180.71875 C -34.617188 -188.851562 -23.765625 -195.128906 -11.421875 -199.546875 C 0.921875 -203.972656 13.988281 -206.1875 27.78125 -206.1875 C 39.300781 -206.1875 50.617188 -204.539062 61.734375 -201.25 C 72.847656 -197.957031 82.773438 -193.019531 91.515625 -186.4375 C 100.265625 -179.851562 107.3125 -171.722656 112.65625 -162.046875 C 118.007812 -152.378906 120.6875 -141.164062 120.6875 -128.40625 C 120.6875 -115.644531 118.679688 -104.890625 114.671875 -96.140625 C 110.660156 -87.398438 105.050781 -80.300781 97.84375 -74.84375 C 90.644531 -69.394531 82.101562 -65.4375 72.21875 -62.96875 C 62.34375 -60.5 51.644531 -59.265625 40.125 -59.265625 Z M 40.125 -19.140625 "/></g></g></g></g></g><g transform="matrix(1, 0, 0, 1, 44, 289)"><g clip-path="url(#662bbb50e5)"><g fill="#db4fa0" fill-opacity="1"><g transform="translate(1.061064, 18.977403)"><g><path d="M 1.15625 0 L 1.15625 -0.296875 C 1.5 -0.398438 1.734375 -0.625 1.859375 -0.96875 C 1.984375 -1.3125 2.046875 -1.941406 2.046875 -2.859375 L 2.046875 -12.90625 C 2.046875 -13.84375 1.984375 -14.476562 1.859375 -14.8125 C 1.734375 -15.15625 1.5 -15.378906 1.15625 -15.484375 L 1.15625 -15.765625 L 5.71875 -15.765625 C 7.28125 -15.765625 8.507812 -15.546875 9.40625 -15.109375 C 10.300781 -14.679688 10.9375 -14.128906 11.3125 -13.453125 C 11.6875 -12.773438 11.875 -12.066406 11.875 -11.328125 C 11.875 -9.828125 11.335938 -8.601562 10.265625 -7.65625 C 9.191406 -6.707031 7.601562 -6.234375 5.5 -6.234375 L 3.890625 -6.234375 L 3.890625 -2.859375 C 3.890625 -1.941406 3.953125 -1.3125 4.078125 -0.96875 C 4.210938 -0.625 4.453125 -0.398438 4.796875 -0.296875 L 4.796875 0 Z M 3.890625 -6.578125 L 5.453125 -6.578125 C 6.890625 -6.578125 7.988281 -6.953125 8.75 -7.703125 C 9.507812 -8.453125 9.890625 -9.488281 9.890625 -10.8125 C 9.890625 -11.625 9.71875 -12.378906 9.375 -13.078125 C 9.039062 -13.773438 8.503906 -14.34375 7.765625 -14.78125 C 7.035156 -15.21875 6.0625 -15.4375 4.84375 -15.4375 C 4.695312 -15.4375 4.535156 -15.429688 4.359375 -15.421875 C 4.179688 -15.410156 4.023438 -15.398438 3.890625 -15.390625 Z M 3.890625 -6.578125 "/></g></g></g><g fill="#db4fa0" fill-opacity="1"><g transform="translate(19.427201, 18.977403)"><g><path d="M 1.15625 0 L 1.15625 -0.296875 C 1.5 -0.398438 1.734375 -0.625 1.859375 -0.96875 C 1.984375 -1.3125 2.046875 -1.941406 2.046875 -2.859375 L 2.046875 -12.90625 C 2.046875 -13.84375 1.984375 -14.476562 1.859375 -14.8125 C 1.734375 -15.15625 1.5 -15.378906 1.15625 -15.484375 L 1.15625 -15.765625 L 4.796875 -15.765625 L 4.796875 -15.484375 C 4.453125 -15.378906 4.210938 -15.15625 4.078125 -14.8125 C 3.953125 -14.476562 3.890625 -13.84375 3.890625 -12.90625 L 3.890625 -2.859375 C 3.890625 -1.941406 3.953125 -1.3125 4.078125 -0.96875 C 4.210938 -0.625 4.453125 -0.398438 4.796875 -0.296875 L 4.796875 0 Z M 1.15625 0 "/></g></g></g><g fill="#db4fa0" fill-opacity="1"><g transform="translate(31.303229, 18.977403)"><g><path d="M 13.046875 0.1875 L 2.4375 -13.625 L 2.4375 -3.765625 C 2.4375 -2.910156 2.492188 -2.25 2.609375 -1.78125 C 2.734375 -1.3125 2.910156 -0.96875 3.140625 -0.75 C 3.378906 -0.53125 3.660156 -0.378906 3.984375 -0.296875 L 3.984375 0 L 1.171875 0 L 1.171875 -0.296875 C 1.515625 -0.398438 1.75 -0.625 1.875 -0.96875 C 2.007812 -1.3125 2.078125 -1.941406 2.078125 -2.859375 L 2.078125 -12.90625 C 2.078125 -13.84375 1.992188 -14.476562 1.828125 -14.8125 C 1.660156 -15.15625 1.351562 -15.378906 0.90625 -15.484375 L 0.90625 -15.765625 L 3.109375 -15.765625 L 12.953125 -3.015625 L 12.953125 -12.015625 C 12.953125 -12.867188 12.890625 -13.53125 12.765625 -14 C 12.648438 -14.476562 12.476562 -14.820312 12.25 -15.03125 C 12.03125 -15.238281 11.75 -15.390625 11.40625 -15.484375 L 11.40625 -15.765625 L 14.234375 -15.765625 L 14.234375 -15.484375 C 13.890625 -15.378906 13.65625 -15.15625 13.53125 -14.8125 C 13.40625 -14.476562 13.34375 -13.84375 13.34375 -12.90625 L 13.34375 0.1875 Z M 13.046875 0.1875 "/></g></g></g><g fill="#db4fa0" fill-opacity="1"><g transform="translate(52.373594, 18.977403)"><g><path d="M -0.390625 0 L -0.390625 -0.296875 C -0.0664062 -0.398438 0.238281 -0.601562 0.53125 -0.90625 C 0.832031 -1.21875 1.160156 -1.800781 1.515625 -2.65625 L 5.953125 -13.65625 C 6.085938 -14.007812 6.070312 -14.363281 5.90625 -14.71875 L 5.703125 -15.1875 L 7.390625 -15.953125 L 12.9375 -2.640625 C 13.28125 -1.796875 13.585938 -1.21875 13.859375 -0.90625 C 14.140625 -0.601562 14.398438 -0.398438 14.640625 -0.296875 L 14.640625 0 L 11.15625 0 L 11.15625 -0.296875 C 11.5 -0.398438 11.640625 -0.601562 11.578125 -0.90625 C 11.515625 -1.21875 11.304688 -1.796875 10.953125 -2.640625 L 9.578125 -5.953125 L 3.21875 -5.953125 L 1.890625 -2.65625 C 1.316406 -1.226562 1.40625 -0.441406 2.15625 -0.296875 L 2.15625 0 Z M 3.359375 -6.28125 L 9.4375 -6.28125 L 6.359375 -13.703125 Z M 3.359375 -6.28125 "/></g></g></g><g fill="#db4fa0" fill-opacity="1"><g transform="translate(72.745365, 18.977403)"><g><path d="M 4.265625 0 L 4.265625 -0.296875 C 4.609375 -0.398438 4.84375 -0.625 4.96875 -0.96875 C 5.09375 -1.3125 5.148438 -1.941406 5.140625 -2.859375 L 5.140625 -7.09375 L 1.734375 -13.265625 C 1.296875 -14.066406 0.910156 -14.609375 0.578125 -14.890625 C 0.253906 -15.179688 -0.0234375 -15.378906 -0.265625 -15.484375 L -0.265625 -15.765625 L 3.296875 -15.765625 L 3.296875 -15.484375 C 2.960938 -15.378906 2.847656 -15.179688 2.953125 -14.890625 C 3.054688 -14.609375 3.332031 -14.066406 3.78125 -13.265625 L 6.921875 -7.6875 L 10.078125 -13.265625 C 10.460938 -13.960938 10.65625 -14.484375 10.65625 -14.828125 C 10.65625 -15.179688 10.4375 -15.398438 10 -15.484375 L 10 -15.765625 L 12.6875 -15.765625 L 12.6875 -15.484375 C 12.382812 -15.378906 12.050781 -15.179688 11.6875 -14.890625 C 11.332031 -14.609375 10.929688 -14.066406 10.484375 -13.265625 L 7.03125 -7.140625 L 7.03125 -2.859375 C 7.03125 -1.941406 7.09375 -1.3125 7.21875 -0.96875 C 7.34375 -0.625 7.582031 -0.398438 7.9375 -0.296875 L 7.9375 0 Z M 4.265625 0 "/></g></g></g><g fill="#8d69f6" fill-opacity="1"><g transform="translate(91.069794, 18.977403)"><g><path d="M 1.125 0 L 1.125 -0.296875 C 1.46875 -0.398438 1.703125 -0.625 1.828125 -0.96875 C 1.960938 -1.3125 2.03125 -1.941406 2.03125 -2.859375 L 2.03125 -12.015625 C 2.03125 -12.867188 1.976562 -13.53125 1.875 -14 C 1.769531 -14.476562 1.613281 -14.820312 1.40625 -15.03125 C 1.207031 -15.238281 0.957031 -15.390625 0.65625 -15.484375 L 0.65625 -15.765625 L 3.375 -15.765625 L 9.265625 -6.0625 L 15.03125 -15.765625 L 17.578125 -15.765625 L 17.578125 -15.484375 C 17.273438 -15.390625 17.019531 -15.238281 16.8125 -15.03125 C 16.613281 -14.820312 16.460938 -14.476562 16.359375 -14 C 16.253906 -13.53125 16.203125 -12.867188 16.203125 -12.015625 L 16.203125 -2.859375 C 16.203125 -1.941406 16.265625 -1.3125 16.390625 -0.96875 C 16.515625 -0.625 16.75 -0.398438 17.09375 -0.296875 L 17.09375 0 L 13.453125 0 L 13.453125 -0.296875 C 13.796875 -0.398438 14.03125 -0.625 14.15625 -0.96875 C 14.289062 -1.3125 14.359375 -1.941406 14.359375 -2.859375 L 14.359375 -13.953125 L 8.625 -4.28125 L 8.203125 -4.28125 L 2.4375 -13.765625 L 2.4375 -3.765625 C 2.4375 -2.910156 2.492188 -2.25 2.609375 -1.78125 C 2.734375 -1.3125 2.90625 -0.96875 3.125 -0.75 C 3.351562 -0.53125 3.632812 -0.378906 3.96875 -0.296875 L 3.96875 0 Z M 1.125 0 "/></g></g></g><g fill="#8d69f6" fill-opacity="1"><g transform="translate(115.723236, 18.977403)"><g><path d="M -0.390625 0 L -0.390625 -0.296875 C -0.0664062 -0.398438 0.238281 -0.601562 0.53125 -0.90625 C 0.832031 -1.21875 1.160156 -1.800781 1.515625 -2.65625 L 5.953125 -13.65625 C 6.085938 -14.007812 6.070312 -14.363281 5.90625 -14.71875 L 5.703125 -15.1875 L 7.390625 -15.953125 L 12.9375 -2.640625 C 13.28125 -1.796875 13.585938 -1.21875 13.859375 -0.90625 C 14.140625 -0.601562 14.398438 -0.398438 14.640625 -0.296875 L 14.640625 0 L 11.15625 0 L 11.15625 -0.296875 C 11.5 -0.398438 11.640625 -0.601562 11.578125 -0.90625 C 11.515625 -1.21875 11.304688 -1.796875 10.953125 -2.640625 L 9.578125 -5.953125 L 3.21875 -5.953125 L 1.890625 -2.65625 C 1.316406 -1.226562 1.40625 -0.441406 2.15625 -0.296875 L 2.15625 0 Z M 3.359375 -6.28125 L 9.4375 -6.28125 L 6.359375 -13.703125 Z M 3.359375 -6.28125 "/></g></g></g><g fill="#8d69f6" fill-opacity="1"><g transform="translate(136.095006, 18.977403)"><g><path d="M 4.484375 0 L 4.484375 -0.296875 C 4.828125 -0.398438 5.0625 -0.625 5.1875 -0.96875 C 5.320312 -1.3125 5.390625 -1.941406 5.390625 -2.859375 L 5.390625 -15.40625 L 4.28125 -15.40625 C 3.269531 -15.40625 2.5 -15.25 1.96875 -14.9375 C 1.445312 -14.625 0.992188 -14.0625 0.609375 -13.25 L 0.359375 -13.296875 L 0.5 -15.765625 L 12.09375 -15.765625 L 12.234375 -13.296875 L 11.984375 -13.25 C 11.609375 -14.0625 11.15625 -14.625 10.625 -14.9375 C 10.101562 -15.25 9.332031 -15.40625 8.3125 -15.40625 L 7.25 -15.40625 L 7.25 -2.859375 C 7.25 -1.941406 7.3125 -1.3125 7.4375 -0.96875 C 7.570312 -0.625 7.8125 -0.398438 8.15625 -0.296875 L 8.15625 0 Z M 4.484375 0 "/></g></g></g><g fill="#8d69f6" fill-opacity="1"><g transform="translate(154.641426, 18.977403)"><g><path d="M 1.15625 0 L 1.15625 -0.296875 C 1.5 -0.398438 1.734375 -0.625 1.859375 -0.96875 C 1.984375 -1.3125 2.046875 -1.941406 2.046875 -2.859375 L 2.046875 -12.90625 C 2.046875 -13.84375 1.984375 -14.476562 1.859375 -14.8125 C 1.734375 -15.15625 1.5 -15.378906 1.15625 -15.484375 L 1.15625 -15.765625 L 11.625 -15.765625 L 11.875 -12.84375 L 11.625 -12.78125 C 11.238281 -13.769531 10.691406 -14.457031 9.984375 -14.84375 C 9.285156 -15.238281 8.359375 -15.4375 7.203125 -15.4375 L 3.890625 -15.4375 L 3.890625 -8.609375 L 6.78125 -8.609375 C 7.632812 -8.609375 8.296875 -8.660156 8.765625 -8.765625 C 9.242188 -8.878906 9.59375 -9.050781 9.8125 -9.28125 C 10.03125 -9.519531 10.1875 -9.804688 10.28125 -10.140625 L 10.546875 -10.140625 L 10.546875 -6.734375 L 10.28125 -6.734375 C 10.1875 -7.078125 10.03125 -7.363281 9.8125 -7.59375 C 9.59375 -7.820312 9.242188 -7.988281 8.765625 -8.09375 C 8.296875 -8.207031 7.632812 -8.265625 6.78125 -8.265625 L 3.890625 -8.265625 L 3.890625 -1.359375 C 3.890625 -0.679688 4.226562 -0.34375 4.90625 -0.34375 L 7.84375 -0.34375 C 8.925781 -0.34375 9.816406 -0.53125 10.515625 -0.90625 C 11.222656 -1.28125 11.78125 -1.992188 12.1875 -3.046875 L 12.4375 -3 L 12.25 0 Z M 1.15625 0 "/></g></g></g></g></g><g transform="matrix(1, 0, 0, 1, 49, 55)"><g clip-path="url(#f14b52d68e)"><g fill="#8d69f6" fill-opacity="1"><g transform="translate(69.862866, 224.395074)"><g><path d="M 200.25 63.671875 C 197.914062 63.878906 195.6875 64.035156 193.5625 64.140625 C 191.4375 64.253906 189.207031 64.3125 186.875 64.3125 C 170.75 64.3125 156.742188 60.488281 144.859375 52.84375 C 132.972656 45.207031 122.410156 35.285156 113.171875 23.078125 C 103.941406 10.878906 95.71875 -2.910156 88.5 -18.296875 C 81.289062 -33.691406 74.394531 -49.1875 67.8125 -64.78125 C 61.226562 -80.382812 54.59375 -95.296875 47.90625 -109.515625 C 41.226562 -123.734375 33.851562 -135.832031 25.78125 -145.8125 L 25.78125 -23.5625 C 25.78125 -17.40625 27.476562 -12.363281 30.875 -8.4375 C 34.269531 -4.507812 38.726562 -1.695312 44.25 0 L 5.734375 0 C 17.398438 -3.601562 23.234375 -11.457031 23.234375 -23.5625 L 23.234375 -148.671875 C 15.804688 -157.585938 6.894531 -165.175781 -3.5 -171.4375 C -13.90625 -177.695312 -25.050781 -180.828125 -36.9375 -180.828125 C -41.601562 -180.828125 -46.164062 -180.453125 -50.625 -179.703125 C -55.082031 -178.960938 -59.429688 -178.066406 -63.671875 -177.015625 L -64.625 -179.234375 C -54.4375 -182.203125 -44.144531 -183.6875 -33.75 -183.6875 C -20.375 -183.6875 -8.273438 -181.351562 2.546875 -176.6875 C 13.367188 -172.019531 23.179688 -165.757812 31.984375 -157.90625 C 40.796875 -150.050781 48.648438 -140.976562 55.546875 -130.6875 C 62.453125 -120.394531 68.71875 -109.625 74.34375 -98.375 C 79.96875 -87.125 85.164062 -75.769531 89.9375 -64.3125 C 94.707031 -52.851562 99.21875 -42.03125 103.46875 -31.84375 L 159.8125 -156 L 188.46875 -156 C 184.007812 -154.726562 180.984375 -152.234375 179.390625 -148.515625 C 177.804688 -144.796875 177.015625 -140.816406 177.015625 -136.578125 L 177.015625 -20.375 C 177.015625 -16.132812 177.753906 -12.050781 179.234375 -8.125 C 180.722656 -4.195312 183.800781 -1.488281 188.46875 0 L 146.125 0 C 150.789062 -1.269531 153.867188 -3.921875 155.359375 -7.953125 C 156.847656 -11.992188 157.59375 -16.132812 157.59375 -20.375 L 157.59375 -145.8125 L 104.734375 -28.96875 C 108.128906 -20.269531 112.160156 -10.664062 116.828125 -0.15625 C 121.503906 10.34375 127.023438 20.15625 133.390625 29.28125 C 139.753906 38.414062 147.234375 46.054688 155.828125 52.203125 C 164.429688 58.359375 174.25 61.4375 185.28125 61.4375 C 187.832031 61.4375 190.328125 61.382812 192.765625 61.28125 C 195.203125 61.175781 197.59375 60.910156 199.9375 60.484375 Z M 200.25 63.671875 "/></g></g></g></g></g></svg>