<svg xmlns="http://www.w3.org/2000/svg" xmlns:xlink="http://www.w3.org/1999/xlink" width="500" zoomAndPan="magnify" viewBox="0 0 375 374.999991" height="500" preserveAspectRatio="xMidYMid meet" version="1.0"><defs><g/><clipPath id="1e1a03c5e2"><rect x="0" width="229" y="0" height="339"/></clipPath><clipPath id="9f61fe011e"><rect x="0" width="302" y="0" height="336"/></clipPath></defs><g transform="matrix(1, 0, 0, 1, 18, 10)"><g clip-path="url(#1e1a03c5e2)"><g fill="#ef3e78" fill-opacity="1"><g transform="translate(85.601449, 236.890485)"><g><path d="M 43.6875 -20.84375 C 43.6875 -16.582031 44.472656 -12.378906 46.046875 -8.234375 C 47.617188 -4.085938 50.753906 -1.34375 55.453125 0 L 11.421875 0 C 16.359375 -1.34375 19.550781 -4.140625 21 -8.390625 C 22.457031 -12.648438 23.1875 -17.023438 23.1875 -21.515625 L 23.1875 -144.1875 C 23.1875 -148.445312 22.398438 -152.648438 20.828125 -156.796875 C 19.265625 -160.941406 16.128906 -163.570312 11.421875 -164.6875 L 55.453125 -164.6875 C 50.753906 -163.34375 47.617188 -160.65625 46.046875 -156.625 C 44.472656 -152.59375 43.6875 -148.445312 43.6875 -144.1875 L 43.6875 -67.21875 C 67.894531 -67.21875 85.265625 -73.378906 95.796875 -85.703125 C 106.328125 -98.023438 111.59375 -115.84375 111.59375 -139.15625 C 111.59375 -150.800781 109.570312 -161.664062 105.53125 -171.75 C 101.5 -181.832031 95.84375 -190.570312 88.5625 -197.96875 C 81.28125 -205.363281 72.707031 -211.132812 62.84375 -215.28125 C 52.988281 -219.425781 42.125 -221.5 30.25 -221.5 C 15.238281 -221.5 1.628906 -218.753906 -10.578125 -213.265625 C -22.796875 -207.773438 -33.160156 -200.265625 -41.671875 -190.734375 C -50.191406 -181.210938 -56.800781 -170.066406 -61.5 -157.296875 C -66.207031 -144.523438 -68.5625 -130.859375 -68.5625 -116.296875 C -68.5625 -104.640625 -66.878906 -93.320312 -63.515625 -82.34375 C -60.160156 -71.363281 -55.175781 -61.671875 -48.5625 -53.265625 C -41.957031 -44.867188 -33.835938 -38.148438 -24.203125 -33.109375 C -14.566406 -28.066406 -3.363281 -25.546875 9.40625 -25.546875 L 9.40625 -22.515625 C -4.476562 -22.515625 -17.019531 -25.257812 -28.21875 -30.75 C -39.425781 -36.238281 -48.953125 -43.578125 -56.796875 -52.765625 C -64.640625 -61.953125 -70.691406 -72.539062 -74.953125 -84.53125 C -79.210938 -96.519531 -81.34375 -109.125 -81.34375 -122.34375 C -81.34375 -138.03125 -78.316406 -152.144531 -72.265625 -164.6875 C -66.210938 -177.238281 -58.085938 -187.9375 -47.890625 -196.78125 C -37.703125 -205.632812 -25.882812 -212.46875 -12.4375 -217.28125 C 1.007812 -222.101562 15.238281 -224.515625 30.25 -224.515625 C 42.800781 -224.515625 55.125 -222.722656 67.21875 -219.140625 C 79.320312 -215.554688 90.132812 -210.175781 99.65625 -203 C 109.175781 -195.832031 116.847656 -186.984375 122.671875 -176.453125 C 128.503906 -165.921875 131.421875 -153.710938 131.421875 -139.828125 C 131.421875 -125.929688 129.234375 -114.21875 124.859375 -104.6875 C 120.492188 -95.164062 114.390625 -87.4375 106.546875 -81.5 C 98.703125 -75.5625 89.398438 -71.25 78.640625 -68.5625 C 67.890625 -65.875 56.238281 -64.53125 43.6875 -64.53125 Z M 43.6875 -20.84375 "/></g></g></g></g></g><g transform="matrix(1, 0, 0, 1, 45, 39)"><g clip-path="url(#9f61fe011e)"><g fill="#8d69f6" fill-opacity="1"><g transform="translate(76.261794, 244.637281)"><g><path d="M 218.046875 69.328125 C 215.503906 69.554688 213.078125 69.726562 210.765625 69.84375 C 208.453125 69.96875 206.023438 70.03125 203.484375 70.03125 C 185.921875 70.03125 170.664062 65.867188 157.71875 57.546875 C 144.78125 49.222656 133.285156 38.414062 123.234375 25.125 C 113.179688 11.84375 104.222656 -3.171875 96.359375 -19.921875 C 88.503906 -36.679688 80.992188 -53.554688 73.828125 -70.546875 C 66.671875 -87.535156 59.453125 -103.769531 52.171875 -119.25 C 44.890625 -134.726562 36.859375 -147.898438 28.078125 -158.765625 L 28.078125 -25.65625 C 28.078125 -18.945312 29.925781 -13.453125 33.625 -9.171875 C 37.320312 -4.898438 42.175781 -1.84375 48.1875 0 L 6.234375 0 C 18.953125 -3.925781 25.3125 -12.476562 25.3125 -25.65625 L 25.3125 -161.890625 C 17.21875 -171.597656 7.507812 -179.859375 -3.8125 -186.671875 C -15.132812 -193.492188 -27.269531 -196.90625 -40.21875 -196.90625 C -45.300781 -196.90625 -50.265625 -196.5 -55.109375 -195.6875 C -59.960938 -194.875 -64.703125 -193.890625 -69.328125 -192.734375 L -70.375 -195.171875 C -59.28125 -198.398438 -48.070312 -200.015625 -36.75 -200.015625 C -22.1875 -200.015625 -9.015625 -197.472656 2.765625 -192.390625 C 14.554688 -187.304688 25.242188 -180.488281 34.828125 -171.9375 C 44.421875 -163.382812 52.972656 -153.503906 60.484375 -142.296875 C 68.003906 -131.085938 74.820312 -119.359375 80.9375 -107.109375 C 87.0625 -94.867188 92.722656 -82.507812 97.921875 -70.03125 C 103.128906 -57.550781 108.039062 -45.765625 112.65625 -34.671875 L 174.015625 -169.859375 L 205.21875 -169.859375 C 200.363281 -168.472656 197.066406 -165.757812 195.328125 -161.71875 C 193.597656 -157.675781 192.734375 -153.34375 192.734375 -148.71875 L 192.734375 -22.1875 C 192.734375 -17.5625 193.539062 -13.109375 195.15625 -8.828125 C 196.78125 -4.554688 200.132812 -1.613281 205.21875 0 L 159.109375 0 C 164.191406 -1.382812 167.539062 -4.269531 169.15625 -8.65625 C 170.78125 -13.050781 171.59375 -17.5625 171.59375 -22.1875 L 171.59375 -158.765625 L 114.046875 -31.546875 C 117.742188 -22.066406 122.132812 -11.609375 127.21875 -0.171875 C 132.300781 11.265625 138.3125 21.953125 145.25 31.890625 C 152.1875 41.828125 160.332031 50.144531 169.6875 56.84375 C 179.050781 63.550781 189.738281 66.90625 201.75 66.90625 C 204.519531 66.90625 207.234375 66.847656 209.890625 66.734375 C 212.554688 66.617188 215.160156 66.328125 217.703125 65.859375 Z M 218.046875 69.328125 "/></g></g></g></g></g></svg>