<svg xmlns="http://www.w3.org/2000/svg" xmlns:xlink="http://www.w3.org/1999/xlink" width="500" zoomAndPan="magnify" viewBox="0 0 375 374.999991" height="500" preserveAspectRatio="xMidYMid meet" version="1.0"><defs><g/><clipPath id="2c02f37674"><rect x="0" width="211" y="0" height="311"/></clipPath><clipPath id="9375916da3"><rect x="0" width="287" y="0" height="40"/></clipPath><clipPath id="6efebad415"><rect x="0" width="224" y="0" height="260"/></clipPath></defs><g transform="matrix(1, 0, 0, 1, 31, 28)"><g clip-path="url(#2c02f37674)"><g fill="#ef3e78" fill-opacity="1"><g transform="translate(79.144181, 217.648038)"><g><path d="M 40.125 -19.140625 C 40.125 -15.222656 40.84375 -11.363281 42.28125 -7.5625 C 43.726562 -3.757812 46.613281 -1.238281 50.9375 0 L 10.5 0 C 15.019531 -1.238281 17.945312 -3.8125 19.28125 -7.71875 C 20.625 -11.625 21.296875 -15.632812 21.296875 -19.75 L 21.296875 -132.421875 C 21.296875 -136.328125 20.578125 -140.179688 19.140625 -143.984375 C 17.703125 -147.796875 14.820312 -150.21875 10.5 -151.25 L 50.9375 -151.25 C 46.613281 -150.007812 43.726562 -147.535156 42.28125 -143.828125 C 40.84375 -140.128906 40.125 -136.328125 40.125 -132.421875 L 40.125 -61.734375 C 62.351562 -61.734375 78.300781 -67.390625 87.96875 -78.703125 C 97.644531 -90.023438 102.484375 -106.390625 102.484375 -127.796875 C 102.484375 -138.492188 100.628906 -148.472656 96.921875 -157.734375 C 93.210938 -166.992188 88.015625 -175.019531 81.328125 -181.8125 C 74.640625 -188.601562 66.769531 -193.898438 57.71875 -197.703125 C 48.664062 -201.515625 38.6875 -203.421875 27.78125 -203.421875 C 13.988281 -203.421875 1.488281 -200.898438 -9.71875 -195.859375 C -20.9375 -190.816406 -30.453125 -183.921875 -38.265625 -175.171875 C -46.085938 -166.421875 -52.160156 -156.179688 -56.484375 -144.453125 C -60.804688 -132.722656 -62.96875 -120.171875 -62.96875 -106.796875 C -62.96875 -96.097656 -61.421875 -85.707031 -58.328125 -75.625 C -55.242188 -65.539062 -50.664062 -56.640625 -44.59375 -48.921875 C -38.53125 -41.203125 -31.070312 -35.023438 -22.21875 -30.390625 C -13.375 -25.765625 -3.085938 -23.453125 8.640625 -23.453125 L 8.640625 -20.6875 C -4.117188 -20.6875 -15.640625 -23.207031 -25.921875 -28.25 C -36.210938 -33.289062 -44.957031 -40.023438 -52.15625 -48.453125 C -59.363281 -56.890625 -64.921875 -66.613281 -68.828125 -77.625 C -72.742188 -88.632812 -74.703125 -100.210938 -74.703125 -112.359375 C -74.703125 -126.765625 -71.921875 -139.726562 -66.359375 -151.25 C -60.804688 -162.769531 -53.347656 -172.59375 -43.984375 -180.71875 C -34.617188 -188.851562 -23.765625 -195.128906 -11.421875 -199.546875 C 0.921875 -203.972656 13.988281 -206.1875 27.78125 -206.1875 C 39.300781 -206.1875 50.617188 -204.539062 61.734375 -201.25 C 72.847656 -197.957031 82.773438 -193.019531 91.515625 -186.4375 C 100.265625 -179.851562 107.3125 -171.722656 112.65625 -162.046875 C 118.007812 -152.378906 120.6875 -141.164062 120.6875 -128.40625 C 120.6875 -115.644531 118.679688 -104.890625 114.671875 -96.140625 C 110.660156 -87.398438 105.050781 -80.300781 97.84375 -74.84375 C 90.644531 -69.394531 82.101562 -65.4375 72.21875 -62.96875 C 62.34375 -60.5 51.644531 -59.265625 40.125 -59.265625 Z M 40.125 -19.140625 "/></g></g></g></g></g><g transform="matrix(1, 0, 0, 1, 45, 300)"><g clip-path="url(#9375916da3)"><g fill="#db4fa0" fill-opacity="1"><g transform="translate(0.356369, 30.018476)"><g><path d="M 1.890625 0 L 1.890625 -0.484375 C 2.460938 -0.648438 2.851562 -1.019531 3.0625 -1.59375 C 3.269531 -2.164062 3.375 -3.203125 3.375 -4.703125 L 3.375 -21.25 C 3.375 -22.78125 3.269531 -23.820312 3.0625 -24.375 C 2.851562 -24.9375 2.460938 -25.300781 1.890625 -25.46875 L 1.890625 -25.953125 L 9.421875 -25.953125 C 11.992188 -25.953125 14.015625 -25.59375 15.484375 -24.875 C 16.953125 -24.15625 17.992188 -23.238281 18.609375 -22.125 C 19.234375 -21.019531 19.546875 -19.863281 19.546875 -18.65625 C 19.546875 -16.175781 18.660156 -14.15625 16.890625 -12.59375 C 15.117188 -11.039062 12.503906 -10.265625 9.046875 -10.265625 L 6.421875 -10.265625 L 6.421875 -4.703125 C 6.421875 -3.203125 6.523438 -2.164062 6.734375 -1.59375 C 6.941406 -1.019531 7.328125 -0.648438 7.890625 -0.484375 L 7.890625 0 Z M 6.421875 -10.828125 L 8.96875 -10.828125 C 11.34375 -10.828125 13.15625 -11.441406 14.40625 -12.671875 C 15.65625 -13.910156 16.28125 -15.617188 16.28125 -17.796875 C 16.28125 -19.128906 16 -20.367188 15.4375 -21.515625 C 14.882812 -22.671875 14 -23.609375 12.78125 -24.328125 C 11.570312 -25.046875 9.96875 -25.40625 7.96875 -25.40625 C 7.71875 -25.40625 7.453125 -25.394531 7.171875 -25.375 C 6.890625 -25.363281 6.640625 -25.347656 6.421875 -25.328125 Z M 6.421875 -10.828125 "/></g></g></g><g fill="#db4fa0" fill-opacity="1"><g transform="translate(30.574001, 30.018476)"><g><path d="M 1.890625 0 L 1.890625 -0.484375 C 2.460938 -0.648438 2.851562 -1.019531 3.0625 -1.59375 C 3.269531 -2.164062 3.375 -3.203125 3.375 -4.703125 L 3.375 -21.25 C 3.375 -22.78125 3.269531 -23.820312 3.0625 -24.375 C 2.851562 -24.9375 2.460938 -25.300781 1.890625 -25.46875 L 1.890625 -25.953125 L 7.890625 -25.953125 L 7.890625 -25.46875 C 7.328125 -25.300781 6.941406 -24.9375 6.734375 -24.375 C 6.523438 -23.820312 6.421875 -22.78125 6.421875 -21.25 L 6.421875 -4.703125 C 6.421875 -3.203125 6.523438 -2.164062 6.734375 -1.59375 C 6.941406 -1.019531 7.328125 -0.648438 7.890625 -0.484375 L 7.890625 0 Z M 1.890625 0 "/></g></g></g><g fill="#db4fa0" fill-opacity="1"><g transform="translate(50.113518, 30.018476)"><g><path d="M 21.46875 0.296875 L 4 -22.4375 L 4 -6.1875 C 4 -4.78125 4.097656 -3.691406 4.296875 -2.921875 C 4.492188 -2.160156 4.785156 -1.597656 5.171875 -1.234375 C 5.554688 -0.878906 6.019531 -0.628906 6.5625 -0.484375 L 6.5625 0 L 1.921875 0 L 1.921875 -0.484375 C 2.492188 -0.648438 2.882812 -1.019531 3.09375 -1.59375 C 3.300781 -2.164062 3.40625 -3.203125 3.40625 -4.703125 L 3.40625 -21.25 C 3.40625 -22.78125 3.269531 -23.820312 3 -24.375 C 2.726562 -24.9375 2.222656 -25.300781 1.484375 -25.46875 L 1.484375 -25.953125 L 5.109375 -25.953125 L 21.3125 -4.96875 L 21.3125 -19.765625 C 21.3125 -21.171875 21.210938 -22.265625 21.015625 -23.046875 C 20.828125 -23.828125 20.546875 -24.390625 20.171875 -24.734375 C 19.796875 -25.078125 19.328125 -25.320312 18.765625 -25.46875 L 18.765625 -25.953125 L 23.4375 -25.953125 L 23.4375 -25.46875 C 22.863281 -25.300781 22.472656 -24.9375 22.265625 -24.375 C 22.054688 -23.820312 21.953125 -22.78125 21.953125 -21.25 L 21.953125 0.296875 Z M 21.46875 0.296875 "/></g></g></g><g fill="#db4fa0" fill-opacity="1"><g transform="translate(84.780391, 30.018476)"><g><path d="M -0.625 0 L -0.625 -0.484375 C -0.113281 -0.648438 0.382812 -0.988281 0.875 -1.5 C 1.375 -2.007812 1.910156 -2.96875 2.484375 -4.375 L 9.78125 -22.46875 C 10.007812 -23.0625 9.988281 -23.644531 9.71875 -24.21875 L 9.375 -24.984375 L 12.15625 -26.25 L 21.28125 -4.34375 C 21.851562 -2.957031 22.363281 -2.007812 22.8125 -1.5 C 23.269531 -0.988281 23.695312 -0.648438 24.09375 -0.484375 L 24.09375 0 L 18.359375 0 L 18.359375 -0.484375 C 18.921875 -0.648438 19.148438 -0.988281 19.046875 -1.5 C 18.953125 -2.007812 18.609375 -2.957031 18.015625 -4.34375 L 15.765625 -9.78125 L 5.296875 -9.78125 L 3.109375 -4.375 C 2.171875 -2.03125 2.320312 -0.734375 3.5625 -0.484375 L 3.5625 0 Z M 5.53125 -10.34375 L 15.53125 -10.34375 L 10.453125 -22.546875 Z M 5.53125 -10.34375 "/></g></g></g><g fill="#db4fa0" fill-opacity="1"><g transform="translate(118.297873, 30.018476)"><g><path d="M 7 0 L 7 -0.484375 C 7.570312 -0.648438 7.960938 -1.019531 8.171875 -1.59375 C 8.378906 -2.164062 8.472656 -3.203125 8.453125 -4.703125 L 8.453125 -11.671875 L 2.859375 -21.84375 C 2.140625 -23.144531 1.503906 -24.03125 0.953125 -24.5 C 0.410156 -24.976562 -0.0507812 -25.300781 -0.4375 -25.46875 L -0.4375 -25.953125 L 5.40625 -25.953125 L 5.40625 -25.46875 C 4.863281 -25.300781 4.675781 -24.976562 4.84375 -24.5 C 5.019531 -24.03125 5.484375 -23.144531 6.234375 -21.84375 L 11.390625 -12.640625 L 16.578125 -21.84375 C 17.210938 -22.976562 17.53125 -23.832031 17.53125 -24.40625 C 17.53125 -24.988281 17.175781 -25.34375 16.46875 -25.46875 L 16.46875 -25.953125 L 20.875 -25.953125 L 20.875 -25.46875 C 20.382812 -25.300781 19.84375 -24.976562 19.25 -24.5 C 18.65625 -24.03125 17.984375 -23.144531 17.234375 -21.84375 L 11.5625 -11.75 L 11.5625 -4.703125 C 11.5625 -3.203125 11.664062 -2.164062 11.875 -1.59375 C 12.09375 -1.019531 12.484375 -0.648438 13.046875 -0.484375 L 13.046875 0 Z M 7 0 "/></g></g></g><g fill="#8d69f6" fill-opacity="1"><g transform="translate(148.446884, 30.018476)"><g><path d="M 1.859375 0 L 1.859375 -0.484375 C 2.421875 -0.648438 2.804688 -1.019531 3.015625 -1.59375 C 3.234375 -2.164062 3.34375 -3.203125 3.34375 -4.703125 L 3.34375 -19.765625 C 3.34375 -21.171875 3.253906 -22.265625 3.078125 -23.046875 C 2.898438 -23.828125 2.644531 -24.390625 2.3125 -24.734375 C 1.976562 -25.078125 1.566406 -25.320312 1.078125 -25.46875 L 1.078125 -25.953125 L 5.5625 -25.953125 L 15.234375 -9.96875 L 24.734375 -25.953125 L 28.921875 -25.953125 L 28.921875 -25.46875 C 28.421875 -25.320312 28.003906 -25.078125 27.671875 -24.734375 C 27.335938 -24.390625 27.082031 -23.828125 26.90625 -23.046875 C 26.738281 -22.265625 26.65625 -21.171875 26.65625 -19.765625 L 26.65625 -4.703125 C 26.65625 -3.203125 26.757812 -2.164062 26.96875 -1.59375 C 27.1875 -1.019531 27.578125 -0.648438 28.140625 -0.484375 L 28.140625 0 L 22.140625 0 L 22.140625 -0.484375 C 22.703125 -0.648438 23.085938 -1.019531 23.296875 -1.59375 C 23.515625 -2.164062 23.625 -3.203125 23.625 -4.703125 L 23.625 -22.953125 L 14.203125 -7.046875 L 13.5 -7.046875 L 4 -22.65625 L 4 -6.1875 C 4 -4.78125 4.097656 -3.691406 4.296875 -2.921875 C 4.492188 -2.160156 4.773438 -1.597656 5.140625 -1.234375 C 5.515625 -0.878906 5.976562 -0.628906 6.53125 -0.484375 L 6.53125 0 Z M 1.859375 0 "/></g></g></g><g fill="#8d69f6" fill-opacity="1"><g transform="translate(189.008958, 30.018476)"><g><path d="M -0.625 0 L -0.625 -0.484375 C -0.113281 -0.648438 0.382812 -0.988281 0.875 -1.5 C 1.375 -2.007812 1.910156 -2.96875 2.484375 -4.375 L 9.78125 -22.46875 C 10.007812 -23.0625 9.988281 -23.644531 9.71875 -24.21875 L 9.375 -24.984375 L 12.15625 -26.25 L 21.28125 -4.34375 C 21.851562 -2.957031 22.363281 -2.007812 22.8125 -1.5 C 23.269531 -0.988281 23.695312 -0.648438 24.09375 -0.484375 L 24.09375 0 L 18.359375 0 L 18.359375 -0.484375 C 18.921875 -0.648438 19.148438 -0.988281 19.046875 -1.5 C 18.953125 -2.007812 18.609375 -2.957031 18.015625 -4.34375 L 15.765625 -9.78125 L 5.296875 -9.78125 L 3.109375 -4.375 C 2.171875 -2.03125 2.320312 -0.734375 3.5625 -0.484375 L 3.5625 0 Z M 5.53125 -10.34375 L 15.53125 -10.34375 L 10.453125 -22.546875 Z M 5.53125 -10.34375 "/></g></g></g><g fill="#8d69f6" fill-opacity="1"><g transform="translate(222.52644, 30.018476)"><g><path d="M 7.375 0 L 7.375 -0.484375 C 7.945312 -0.648438 8.335938 -1.019531 8.546875 -1.59375 C 8.753906 -2.164062 8.859375 -3.203125 8.859375 -4.703125 L 8.859375 -25.359375 L 7.046875 -25.359375 C 5.390625 -25.359375 4.128906 -25.097656 3.265625 -24.578125 C 2.398438 -24.054688 1.644531 -23.128906 1 -21.796875 L 0.59375 -21.875 L 0.8125 -25.953125 L 19.90625 -25.953125 L 20.140625 -21.875 L 19.71875 -21.796875 C 19.101562 -23.128906 18.363281 -24.054688 17.5 -24.578125 C 16.632812 -25.097656 15.363281 -25.359375 13.6875 -25.359375 L 11.9375 -25.359375 L 11.9375 -4.703125 C 11.9375 -3.203125 12.039062 -2.164062 12.25 -1.59375 C 12.457031 -1.019531 12.847656 -0.648438 13.421875 -0.484375 L 13.421875 0 Z M 7.375 0 "/></g></g></g><g fill="#8d69f6" fill-opacity="1"><g transform="translate(253.04069, 30.018476)"><g><path d="M 1.890625 0 L 1.890625 -0.484375 C 2.460938 -0.648438 2.851562 -1.019531 3.0625 -1.59375 C 3.269531 -2.164062 3.375 -3.203125 3.375 -4.703125 L 3.375 -21.25 C 3.375 -22.78125 3.269531 -23.820312 3.0625 -24.375 C 2.851562 -24.9375 2.460938 -25.300781 1.890625 -25.46875 L 1.890625 -25.953125 L 19.125 -25.953125 L 19.546875 -21.140625 L 19.125 -21.015625 C 18.488281 -22.648438 17.59375 -23.789062 16.4375 -24.4375 C 15.289062 -25.082031 13.765625 -25.40625 11.859375 -25.40625 L 6.421875 -25.40625 L 6.421875 -14.15625 L 11.15625 -14.15625 C 12.570312 -14.15625 13.664062 -14.25 14.4375 -14.4375 C 15.21875 -14.625 15.785156 -14.910156 16.140625 -15.296875 C 16.503906 -15.679688 16.757812 -16.144531 16.90625 -16.6875 L 17.359375 -16.6875 L 17.359375 -11.09375 L 16.90625 -11.09375 C 16.757812 -11.65625 16.503906 -12.117188 16.140625 -12.484375 C 15.785156 -12.859375 15.21875 -13.140625 14.4375 -13.328125 C 13.664062 -13.515625 12.570312 -13.609375 11.15625 -13.609375 L 6.421875 -13.609375 L 6.421875 -2.21875 C 6.421875 -1.113281 6.972656 -0.5625 8.078125 -0.5625 L 12.90625 -0.5625 C 14.6875 -0.5625 16.15625 -0.867188 17.3125 -1.484375 C 18.476562 -2.097656 19.394531 -3.269531 20.0625 -5 L 20.46875 -4.9375 L 20.171875 0 Z M 1.890625 0 "/></g></g></g></g></g><g transform="matrix(1, 0, 0, 1, 72, 54)"><g clip-path="url(#6efebad415)"><g fill="#8d69f6" fill-opacity="1"><g transform="translate(56.717832, 181.355051)"><g><path d="M 161.984375 51.5 C 160.097656 51.675781 158.296875 51.804688 156.578125 51.890625 C 154.859375 51.972656 153.054688 52.015625 151.171875 52.015625 C 138.117188 52.015625 126.785156 48.925781 117.171875 42.75 C 107.554688 36.570312 99.015625 28.546875 91.546875 18.671875 C 84.078125 8.796875 77.425781 -2.363281 71.59375 -14.8125 C 65.757812 -27.257812 60.179688 -39.789062 54.859375 -52.40625 C 49.535156 -65.03125 44.164062 -77.09375 38.75 -88.59375 C 33.34375 -100.09375 27.378906 -109.878906 20.859375 -117.953125 L 20.859375 -19.0625 C 20.859375 -14.082031 22.226562 -10.003906 24.96875 -6.828125 C 27.71875 -3.648438 31.328125 -1.375 35.796875 0 L 4.640625 0 C 14.078125 -2.914062 18.796875 -9.269531 18.796875 -19.0625 L 18.796875 -120.265625 C 12.785156 -127.472656 5.578125 -133.609375 -2.828125 -138.671875 C -11.242188 -143.742188 -20.257812 -146.28125 -29.875 -146.28125 C -33.65625 -146.28125 -37.347656 -145.976562 -40.953125 -145.375 C -44.554688 -144.769531 -48.070312 -144.039062 -51.5 -143.1875 L -52.28125 -144.984375 C -44.039062 -147.390625 -35.710938 -148.59375 -27.296875 -148.59375 C -16.484375 -148.59375 -6.703125 -146.703125 2.046875 -142.921875 C 10.804688 -139.148438 18.75 -134.085938 25.875 -127.734375 C 33 -121.378906 39.351562 -114.035156 44.9375 -105.703125 C 50.519531 -97.378906 55.582031 -88.664062 60.125 -79.5625 C 64.675781 -70.46875 68.882812 -61.285156 72.75 -52.015625 C 76.613281 -42.742188 80.265625 -33.988281 83.703125 -25.75 L 129.28125 -126.1875 L 152.453125 -126.1875 C 148.847656 -125.15625 146.398438 -123.132812 145.109375 -120.125 C 143.828125 -117.125 143.1875 -113.910156 143.1875 -110.484375 L 143.1875 -16.484375 C 143.1875 -13.046875 143.785156 -9.738281 144.984375 -6.5625 C 146.191406 -3.382812 148.679688 -1.195312 152.453125 0 L 118.203125 0 C 121.984375 -1.03125 124.472656 -3.175781 125.671875 -6.4375 C 126.878906 -9.695312 127.484375 -13.046875 127.484375 -16.484375 L 127.484375 -117.953125 L 84.734375 -23.4375 C 87.472656 -16.394531 90.726562 -8.625 94.5 -0.125 C 98.28125 8.375 102.742188 16.3125 107.890625 23.6875 C 113.046875 31.070312 119.097656 37.253906 126.046875 42.234375 C 133.003906 47.210938 140.953125 49.703125 149.890625 49.703125 C 151.941406 49.703125 153.953125 49.660156 155.921875 49.578125 C 157.898438 49.492188 159.835938 49.28125 161.734375 48.9375 Z M 161.984375 51.5 "/></g></g></g></g></g></svg>